<svg width="6" height="6" viewBox="0 0 6 6" fill="none" xmlns="http://www.w3.org/2000/svg">
<circle cx="3" cy="3" r="2.75" stroke="#335E74" stroke-width="0.5"/>
<path d="M3.19385 2.12646C3.09131 2.12646 2.99951 2.14502 2.91846 2.18213C2.83838 2.21924 2.77051 2.27295 2.71484 2.34326C2.65918 2.4126 2.6167 2.49707 2.5874 2.59668C2.55811 2.69531 2.54346 2.80664 2.54346 2.93066C2.54346 3.09668 2.56689 3.23975 2.61377 3.35986C2.66064 3.479 2.73193 3.5708 2.82764 3.63525C2.92334 3.69873 3.04443 3.73047 3.19092 3.73047C3.28174 3.73047 3.37012 3.72168 3.45605 3.7041C3.54199 3.68652 3.63086 3.6626 3.72266 3.63232V3.93115C3.63574 3.96533 3.54785 3.99023 3.45898 4.00586C3.37012 4.02148 3.26758 4.0293 3.15137 4.0293C2.93262 4.0293 2.75098 3.98389 2.60645 3.89307C2.46289 3.80225 2.35547 3.67432 2.28418 3.50928C2.21387 3.34424 2.17871 3.15088 2.17871 2.9292C2.17871 2.76709 2.20117 2.61865 2.24609 2.48389C2.29102 2.34912 2.35645 2.23291 2.44238 2.13525C2.52832 2.03662 2.63428 1.96094 2.76025 1.9082C2.88721 1.85449 3.03223 1.82764 3.19531 1.82764C3.30273 1.82764 3.4082 1.83984 3.51172 1.86426C3.61621 1.8877 3.71289 1.92139 3.80176 1.96533L3.67871 2.25537C3.60449 2.22021 3.52686 2.18994 3.4458 2.16455C3.36475 2.13916 3.28076 2.12646 3.19385 2.12646Z" fill="#335E74"/>
</svg>
