<svg width="59" height="133" viewBox="0 0 59 133" fill="none" xmlns="http://www.w3.org/2000/svg">
<path fill-rule="evenodd" clip-rule="evenodd" d="M3.60098 5.00011L7.62489 1.78098L6.3755 0.219238L0.399414 5.00011L6.3755 9.78098L7.62489 8.21924L3.60098 5.00011Z" fill="#E9F4F6"/>
<path fill-rule="evenodd" clip-rule="evenodd" d="M54.0003 6H2.43457V4H56.0003V128H54.0003V6Z" fill="#E9F4F6"/>
<path d="M59 129C59 131.209 57.2091 133 55 133C52.7909 133 51 131.209 51 129C51 126.791 52.7909 125 55 125C57.2091 125 59 126.791 59 129Z" fill="white"/>
<path d="M57 129C57 130.105 56.1046 131 55 131C53.8954 131 53 130.105 53 129C53 127.895 53.8954 127 55 127C56.1046 127 57 127.895 57 129Z" fill="#71B3C6"/>
</svg>
